<svg xmlns="http://www.w3.org/2000/svg" width="18" height="18" fill="none" viewBox="0 0 18 18">
    <path fill="#fff" fill-rule="evenodd" d="M9 18A9 9 0 1 0 9 0a9 9 0 0 0 0 18zm-.437-4.5c.812 0 1.346-.3 1.6-.9-.336-.016-.505-.252-.505-.708 0-.208.07-.608.21-1.2l.75-3.792-3.143.313c-.108.01-.124.16-.021.194l.865.282c-.093.386-.233.91-.383 1.47-.339 1.272-.727 2.727-.727 3.177 0 .248.111.496.333.744.262.28.603.42 1.021.42zm.172-8.748a.806.806 0 0 0-.393.72c0 .312.119.548.356.708.247.16.563.24.948.24.386 0 .706-.08.96-.24A.778.778 0 0 0 11 5.472c0-.312-.119-.552-.357-.72-.23-.168-.537-.252-.923-.252s-.714.084-.985.252z" clip-rule="evenodd"/>
</svg>
