<svg xmlns="http://www.w3.org/2000/svg" width="16" height="24" fill="none" viewBox="0 0 16 24">
    <path fill="none" d="M0 0h16v24H0z"/>
    <path fill="#fff" fill-rule="evenodd" d="M2 2h2v2h8V2h2a2 2 0 0 1 2 2v18a2 2 0 0 1-2 2H2a2 2 0 0 1-2-2V4a2 2 0 0 1 2-2zm4.707 4.707l-3.353 3.354L2 8.707 2.707 8l.647.646L6 6l.707.707zM8 8.5h6v-1H8v1zm-1.293 4.207l-3.353 3.354L2 14.707 2.707 14l.647.646L6 12l.707.707zM8 14.5h6v-1H8v1zm-1.293 4.207l-3.353 3.354L2 20.707 2.707 20l.647.646L6 18l.707.707zM8 20.5h6v-1H8v1z" clip-rule="evenodd"/>
    <path fill="#fff" fill-rule="evenodd" d="M9 1h2v2H5V1h2a1 1 0 0 1 2 0z" clip-rule="evenodd"/>
</svg>
