<svg xmlns="http://www.w3.org/2000/svg" width="18" height="18" fill="none" viewBox="0 0 18 18">
    <path fill="#fff" fill-rule="evenodd" d="M9 18A9 9 0 1 0 9 0a9 9 0 0 0 0 18zm1.869-13.396c-.476-.327-1.125-.49-1.946-.49-.476 0-.92.075-1.33.224-.401.14-.793.299-1.176.476l.546 1.106c.205-.093.383-.177.532-.252a3.398 3.398 0 0 1 .798-.294c.13-.028.27-.042.42-.042.327 0 .588.093.784.28.196.187.294.453.294.798 0 .28-.103.57-.308.868-.205.29-.434.602-.686.938-.252.336-.48.705-.686 1.106a2.877 2.877 0 0 0-.308 1.33l1.176.322c.103-.345.257-.677.462-.994.215-.317.453-.64.714-.966.168-.205.336-.415.504-.63.177-.224.331-.448.462-.672.14-.233.252-.471.336-.714.084-.252.126-.513.126-.784 0-.747-.238-1.283-.714-1.61zm-1.638 7.462c-.177-.196-.43-.294-.756-.294-.345 0-.607.107-.784.322a1.116 1.116 0 0 0-.266.756c0 .28.084.523.252.728.177.205.43.308.756.308.355 0 .62-.103.798-.308.177-.205.266-.457.266-.756 0-.308-.089-.56-.266-.756z" clip-rule="evenodd"/>
</svg>
