<svg xmlns="http://www.w3.org/2000/svg" width="21" height="19" fill="none" viewBox="0 0 21 19">
    <path fill="none" d="M0 0h20.524v19H0z"/>
    <path fill="#fff" fill-rule="evenodd" d="M15.49 5.524a4.076 4.076 0 1 1-8.153 0 4.076 4.076 0 0 1 8.152 0zm-.656 4.338a5.524 5.524 0 1 1 .83-.809l3.702 3.704V8.943a.58.58 0 1 1 1.159 0v5.212c0 .32-.26.58-.58.58h-5.211a.58.58 0 0 1 0-1.159h3.814l-3.714-3.714z" clip-rule="evenodd"/>
    <path fill="#fff" fill-rule="evenodd" d="M9.597 5.523a4.075 4.075 0 1 1-8.15.001 4.075 4.075 0 0 1 8.15 0zm-3.198 5.454A5.524 5.524 0 0 0 5.522 0a5.523 5.523 0 0 0-.448 11.029v5.708l-3.087-3.086a.663.663 0 1 0-.937.937l4.218 4.218a.663.663 0 0 0 .937 0l4.218-4.218a.663.663 0 0 0-.937-.937l-3.087 3.086v-5.76z" clip-rule="evenodd"/>
</svg>
