<svg xmlns="http://www.w3.org/2000/svg" width="20" height="16" fill="none" viewBox="0 0 20 16">
    <path fill="#fff" d="M.107 5.514c.657 3.106 3.507 5.921 6.004 8.388.649.641 1.274 1.258 1.83 1.851a.79.79 0 0 0 1.148 0c.12-.129.245-.259.372-.39-.457-.472-.95-.96-1.458-1.46C5.506 11.434 2.656 8.62 2 5.513 1.503 3.17 2.78.724 4.786.134 1.772-.697-.532 2.492.107 5.513zM10.513.795c1.105-.668 2.157-.78 3.061-.514-.717.198-1.475.623-2.243 1.333l-.818-.819z"/>
    <path fill="#fff" d="M10.78 15.753c-.557-.593-1.182-1.21-1.83-1.85-2.498-2.468-5.348-5.283-6.005-8.389-.846-4.001 3.47-8.296 7.759-3.162a.856.856 0 0 0 1.298 0c4.29-5.134 8.605-.84 7.759 3.162-.086.408-.21.81-.366 1.207a11.16 11.16 0 0 1-1.13 2.11c-1.182 1.769-2.837 3.42-4.375 4.94l-.133.131c-.649.641-1.274 1.258-1.83 1.851a.79.79 0 0 1-1.148 0z"/>
</svg>
