<svg width="220" height="66" viewBox="0 0 220 66" fill="none" xmlns="http://www.w3.org/2000/svg">
<rect width="200" height="45" fill="black" fill-opacity="0" transform="translate(10.5 10.5)"/>
<g filter="url(#filter0_d)">
<path d="M10.5 40.5L26.125 25.5L26.125 55.5L10.5 40.5Z" fill="#AF4034"/>
</g>
<g filter="url(#filter1_d)">
<path d="M10.5 40.5L26.125 25.5L26.125 55.5L10.5 40.5Z" fill="#333333" fill-opacity="0.5"/>
</g>
<g filter="url(#filter2_d)">
<path d="M10.5 15.5C10.5 12.7386 12.7386 10.5 15.5 10.5H208.014C208.915 10.5 209.357 11.5976 208.707 12.2214L195.626 24.7786C195.216 25.1722 195.216 25.8278 195.626 26.2214L208.707 38.7786C209.357 39.4024 208.915 40.5 208.014 40.5H10.5V15.5Z" fill="#AF4034"/>
</g>
<defs>
<filter id="filter0_d" x="0.5" y="15.5" width="35.625" height="50" filterUnits="userSpaceOnUse" color-interpolation-filters="sRGB">
<feFlood flood-opacity="0" result="BackgroundImageFix"/>
<feColorMatrix in="SourceAlpha" type="matrix" values="0 0 0 0 0 0 0 0 0 0 0 0 0 0 0 0 0 0 127 0"/>
<feOffset/>
<feGaussianBlur stdDeviation="5"/>
<feColorMatrix type="matrix" values="0 0 0 0 0.686275 0 0 0 0 0.25098 0 0 0 0 0.203922 0 0 0 0.8 0"/>
<feBlend mode="normal" in2="BackgroundImageFix" result="effect1_dropShadow"/>
<feBlend mode="normal" in="SourceGraphic" in2="effect1_dropShadow" result="shape"/>
</filter>
<filter id="filter1_d" x="0.5" y="15.5" width="35.625" height="50" filterUnits="userSpaceOnUse" color-interpolation-filters="sRGB">
<feFlood flood-opacity="0" result="BackgroundImageFix"/>
<feColorMatrix in="SourceAlpha" type="matrix" values="0 0 0 0 0 0 0 0 0 0 0 0 0 0 0 0 0 0 127 0"/>
<feOffset/>
<feGaussianBlur stdDeviation="5"/>
<feColorMatrix type="matrix" values="0 0 0 0 0.686275 0 0 0 0 0.25098 0 0 0 0 0.203922 0 0 0 0.8 0"/>
<feBlend mode="normal" in2="BackgroundImageFix" result="effect1_dropShadow"/>
<feBlend mode="normal" in="SourceGraphic" in2="effect1_dropShadow" result="shape"/>
</filter>
<filter id="filter2_d" x="0.5" y="0.5" width="218.516" height="50" filterUnits="userSpaceOnUse" color-interpolation-filters="sRGB">
<feFlood flood-opacity="0" result="BackgroundImageFix"/>
<feColorMatrix in="SourceAlpha" type="matrix" values="0 0 0 0 0 0 0 0 0 0 0 0 0 0 0 0 0 0 127 0"/>
<feOffset/>
<feGaussianBlur stdDeviation="5"/>
<feColorMatrix type="matrix" values="0 0 0 0 0.686275 0 0 0 0 0.25098 0 0 0 0 0.203922 0 0 0 0.8 0"/>
<feBlend mode="normal" in2="BackgroundImageFix" result="effect1_dropShadow"/>
<feBlend mode="normal" in="SourceGraphic" in2="effect1_dropShadow" result="shape"/>
</filter>
</defs>
</svg>
